# xmcd
#
# Track frame offsets:
#	150
#	15042
#	32744
#	48936
#	64217
#	82697
#	96055
#	109655
#	124232
#	146486
#	176001
#
# Disc length: 2428 seconds
#
# Revision: 1
# Processed by: cddbd v1.5.1PL0 Copyright (c) Steve Scherf et al.
# Submitted via: audiograbber 1.83.01
#
DISCID=80097a0b
DTITLE=Issacs, The - Heroes
DYEAR=2004
DGENRE=Gospel
TTITLE0=Friend 'Til The End
TTITLE1=Peace Like A River
TTITLE2=Heroes
TTITLE3=If That Don't Make You Want To Go
TTITLE4=Yours and Mine
TTITLE5=Half A Day Away
TTITLE6=Great Is Thy Reward
TTITLE7=In His Hands
TTITLE8=Sweet Holy Spirit
TTITLE9=Peace
TTITLE10=Data Track
EXTD=
EXTT0=
EXTT1=
EXTT2=
EXTT3=
EXTT4=
EXTT5=
EXTT6=
EXTT7=
EXTT8=
EXTT9=
EXTT10=
PLAYORDER=
